<?xml version="1.0" standalone="no"?>
<!DOCTYPE svg PUBLIC "-//W3C//DTD SVG 20010904//EN"
 "http://www.w3.org/TR/2001/REC-SVG-20010904/DTD/svg10.dtd">
<svg version="1.0" xmlns="http://www.w3.org/2000/svg"
 width="135.000000pt" height="85.000000pt" viewBox="0 0 135.000000 85.000000"
 preserveAspectRatio="xMidYMid meet">

<g transform="translate(0.000000,85.000000) scale(0.100000,-0.100000)"
fill="#000000" stroke="none">
<path d="M484 687 c-309 -169 -296 -161 -292 -200 2 -24 12 -38 39 -55 l37
-24 7 -119 c6 -107 5 -122 -10 -139 -23 -26 -29 -25 -59 5 -21 21 -35 25 -79
25 -70 0 -107 -26 -107 -76 0 -54 28 -74 104 -74 59 0 67 2 88 29 13 16 37 36
55 45 17 9 35 22 40 28 4 7 8 74 8 148 l0 135 36 18 c38 18 106 32 207 41 l62
6 0 -75 c0 -62 4 -79 20 -95 11 -11 23 -20 28 -20 16 0 276 158 286 173 8 12
8 22 0 35 -11 18 -271 172 -291 172 -21 0 -43 -43 -43 -82 0 -31 4 -38 20 -38
17 0 20 7 20 40 0 22 3 40 6 40 10 0 254 -144 254 -150 0 -5 -224 -137 -252
-148 -4 -2 -8 28 -8 67 0 70 0 71 27 71 14 0 34 -7 44 -16 22 -19 64 -12 73
12 16 43 -30 78 -72 55 -12 -6 -66 -11 -120 -11 -117 0 -240 -21 -289 -50 -31
-18 -36 -19 -63 -5 -34 17 -41 27 -32 42 7 10 424 241 502 278 l35 16 265
-143 c157 -86 265 -150 265 -159 0 -8 -53 -44 -120 -81 l-120 -66 -3 -86 c-1
-47 -4 -86 -5 -86 -1 0 -45 9 -97 20 -147 31 -273 26 -457 -17 -22 -5 -23 -3
-23 80 l0 86 -45 27 c-51 29 -76 35 -82 17 -2 -6 19 -24 46 -40 l51 -28 0 -97
c0 -54 3 -98 8 -98 4 0 36 10 72 22 56 19 88 22 235 22 150 1 178 -2 243 -22
40 -12 77 -20 82 -17 6 3 10 48 10 100 l0 94 118 64 c111 62 117 66 120 99 2
23 -3 39 -15 49 -10 9 -131 77 -270 152 -186 101 -261 137 -285 136 -22 0
-111 -43 -274 -132z m-309 -557 c4 -6 -7 -10 -24 -10 -21 0 -31 -5 -31 -15 0
-10 10 -15 30 -15 32 0 40 -14 14 -24 -64 -24 -141 23 -102 62 14 14 104 16
113 2z"/>
</g>
</svg>
